<svg id="fa49a077-3678-4915-aa41-0510d2c8b914" data-name="Layer 1" xmlns="http://www.w3.org/2000/svg" xmlns:xlink="http://www.w3.org/1999/xlink" width="1920" height="1920" viewBox="0 0 1920 1920">
  <defs>
    <style>
      .ab3623f8-db5c-4f78-8082-fefb0a8e3049 {
        fill: none;
      }

      .e1e4f05f-b461-43d6-9296-1545503da550 {
        clip-path: url(#baa771ab-ca31-4f5b-a459-629a2ce5a063);
      }

      .ae323722-4f8c-4976-8d7c-71534b30b1b7 {
        fill: #304ffe;
      }

      .f8d7325d-96e7-4b04-bd65-9d283ba5ca39 {
        fill: #fff;
      }

      .b9e8ca2f-40f1-4b72-9512-f9b8fa738ae5 {
        fill: #ffa366;
      }
    </style>
    <clipPath id="baa771ab-ca31-4f5b-a459-629a2ce5a063">
      <rect class="ab3623f8-db5c-4f78-8082-fefb0a8e3049" x="10" y="10" width="1900" height="1900"/>
    </clipPath>
  </defs>
  <title>Avatar-QueroBolsa-Graduação-RGB-Colorido</title>
  <g id="a719c437-536e-4104-aa79-f3849df4ce1c" data-name="Icon Graduation Light">
    <g class="e1e4f05f-b461-43d6-9296-1545503da550">
      <g class="e1e4f05f-b461-43d6-9296-1545503da550">
        <path class="ae323722-4f8c-4976-8d7c-71534b30b1b7" d="M10.00036,960.00077c0-524.67094,425.32725-950.00165,950.00173-950.00165,524.66731,0,949.99813,425.33071,949.99813,950.00165,0,524.66731-425.33082,949.99813-949.99813,949.99813-524.67448,0-950.00173-425.33082-950.00173-949.99813"/>
        <path class="f8d7325d-96e7-4b04-bd65-9d283ba5ca39" d="M1530.3972,1473.288l-158.811-207.04539q48.52949-57.904,80.2564-130.02715,42.56035-96.638,42.53159-209.56758,0-112.872-42.53159-209.55682-42.51738-96.64328-115.99512-167.80944-73.43642-71.12662-171.67368-111.36095-98.19231-40.19655-211.10755-40.21094h-3.09421q-112.91518,0-211.11106,40.21094-98.23554,40.23444-171.67379,111.361-73.47955,71.15892-115.995,167.80944-42.56052,96.67045-42.5317,209.55682,0,112.926,42.5317,209.56758,42.5172,96.67574,115.22146,167.8095a514.16716,514.16716,0,0,0,121.79143,88.21151L798.08,1227.75872a313.11038,313.11038,0,0,1-82.41521-59.06071q-44.08236-44.08237-68.05208-105.94955-24.00022-61.833-23.9769-136.10054,0-74.23521,23.9769-135.327,23.95709-61.07206,68.05208-105.93874a311.08321,311.08321,0,0,1,103.618-69.60281q59.52312-24.718,132.23267-24.73969,72.71865,0,132.23641,24.73969a311.13354,311.13354,0,0,1,103.62159,69.60281q44.08237,44.87574,68.04846,105.93874,24.00041,61.12592,23.9769,135.327,0,74.25136-23.9769,136.10054Q1231.4649,1124.63,1187.37353,1168.698a313.24763,313.24763,0,0,1-82.408,59.05352l276.17325,360.0744Z"/>
        <path class="b9e8ca2f-40f1-4b72-9512-f9b8fa738ae5" d="M833.69238,1348.1498a115.70544,115.70544,0,1,1,115.70355,115.70366A115.70611,115.70611,0,0,1,833.69238,1348.1498"/>
      </g>
    </g>
  </g>
</svg>
