<svg id="b0bf8e3a-a61d-4fac-bc45-f2d16d7585aa" data-name="Layer 1" xmlns="http://www.w3.org/2000/svg" xmlns:xlink="http://www.w3.org/1999/xlink" width="1920" height="1920" viewBox="0 0 1920 1920">
  <defs>
    <style>
      .e6438b1f-f61e-45ba-a173-a8c5a2cd2bd6 {
        fill: none;
      }

      .f83e9039-cad9-4f00-9d6c-3ba5a2432bc2 {
        clip-path: url(#e128ab95-eedb-4eab-85f6-c81eea02ad62);
      }

      .eb72fb08-7470-483d-b91e-20b871d295fc {
        fill: #fff;
      }

      .b4fdad2a-8bf6-4b53-a288-40977138489b {
        fill: #304ffe;
      }

      .a69c85f7-115d-4aeb-b222-10d5d7e9affa {
        fill: #ff7e29;
      }
    </style>
    <clipPath id="e128ab95-eedb-4eab-85f6-c81eea02ad62">
      <rect class="e6438b1f-f61e-45ba-a173-a8c5a2cd2bd6" x="10" y="10" width="1900" height="1900"/>
    </clipPath>
  </defs>
  <title>Avatar-QueroBolsa-Graduação-RGB-Colorido</title>
  <g id="b262843e-46ac-467b-8dec-e099e40d8f0b" data-name="Icon Graduation Dark">
    <g class="f83e9039-cad9-4f00-9d6c-3ba5a2432bc2">
      <g class="f83e9039-cad9-4f00-9d6c-3ba5a2432bc2">
        <path class="eb72fb08-7470-483d-b91e-20b871d295fc" d="M10.00036,960.00077c0-524.67094,425.33085-950.00165,949.9981-950.00165,524.67094,0,950.00176,425.33071,950.00176,950.00165,0,524.66731-425.33082,949.99813-950.00176,949.99813-524.66725,0-949.9981-425.33082-949.9981-949.99813"/>
        <path class="b4fdad2a-8bf6-4b53-a288-40977138489b" d="M1530.3972,1473.288l-158.811-207.04539q48.52949-57.904,80.2564-130.02715,42.56035-96.638,42.53159-209.56758,0-112.872-42.53159-209.55682-42.51738-96.64328-115.99512-167.80944-73.43642-71.12662-171.67368-111.36095-98.19231-40.19655-211.11107-40.21094h-3.09069q-112.91518,0-211.11106,40.21094-98.23009,40.23444-171.67379,111.361-73.47413,71.15892-115.995,167.80944-42.56052,96.67045-42.5317,209.55682,0,112.926,42.5317,209.56758,42.5172,96.67574,115.22146,167.8095a514.16716,514.16716,0,0,0,121.79143,88.21151l109.87853-164.47779a313.07015,313.07015,0,0,1-82.41878-59.06071q-44.08236-44.08237-68.05208-105.94955-24.00022-61.833-23.9769-136.10054,0-74.23521,23.9769-135.327,23.95709-61.07206,68.05208-105.93874a311.11975,311.11975,0,0,1,103.618-69.60281q59.52312-24.718,132.23267-24.73969,72.71865,0,132.23641,24.73969a311.13354,311.13354,0,0,1,103.62159,69.60281q44.08237,44.87574,68.04846,105.93874,24.00041,61.12592,23.9769,135.327,0,74.25136-23.9769,136.10054Q1231.4649,1124.63,1187.37353,1168.698a313.24763,313.24763,0,0,1-82.408,59.05352l276.17325,360.0744Z"/>
        <path class="a69c85f7-115d-4aeb-b222-10d5d7e9affa" d="M833.69057,1348.1498a115.70541,115.70541,0,1,1,115.70722,115.70366A115.7069,115.7069,0,0,1,833.69057,1348.1498"/>
      </g>
    </g>
  </g>
</svg>
